# xmcd CD database file
#
# Track frame offsets:
#	150
#	14712
#	33987
#	59037
#	88360
#	114985
#	137185
#	173005
#	207835
#	266849
#	306599
#	331091
#
# Disc length: 4876 seconds
#
# Revision: 0
# Processed by: cddbd v1.5.2PL0 Copyright (c) Steve Scherf et al.
# Submitted via: CDex 1.75
#
DISCID=b5130a0c
DTITLE=Thelonious Monk - The Complete Albums Collection 1954-57
DYEAR=2015
DGENRE=Jazz
TTITLE0=Liza
TTITLE1=Memories Of You
TTITLE2=Honeysuckle Rose
TTITLE3=Darn That Dream
TTITLE4=Tea For Two
TTITLE5=You Are Too Beautiful
TTITLE6=Just You, Just Me
TTITLE7=Brilliant Corners
TTITLE8=Ba-Lue Bolivar Ba-Lues-Are
TTITLE9=Pannonica
TTITLE10=I Surrender, Dear
TTITLE11=Bemsha Swing
EXTD=YEAR: 2015
EXTT0=
EXTT1=
EXTT2=
EXTT3=
EXTT4=
EXTT5=
EXTT6=
EXTT7=
EXTT8=
EXTT9=
EXTT10=
EXTT11=
PLAYORDER=
